<mxfile host="drawio-plugin" modified="2021-12-31T02:51:06.364Z" agent="5.0 (Windows NT 6.2; Win64; x64) AppleWebKit/537.36 (KHTML, like Gecko) Chrome/89.0.4389.114 Safari/537.36" etag="1dB_ZJ_lCvcDtHdVIU8l" version="14.7.4" type="embed"><diagram name="v5" id="tO3d424h9_1YAZObS8Kb"><mxGraphModel dx="1053" dy="776" grid="1" gridSize="10" guides="1" tooltips="1" connect="1" arrows="1" fold="1" page="1" pageScale="1" pageWidth="1600" pageHeight="1200" background="#B0E3E6" math="0" shadow="0"><root><mxCell id="sqdpiy8trpQjpCW_eLVI-0"/><mxCell id="sqdpiy8trpQjpCW_eLVI-1" parent="sqdpiy8trpQjpCW_eLVI-0"/><mxCell id="sqdpiy8trpQjpCW_eLVI-2" style="rounded=1;sketch=0;orthogonalLoop=1;jettySize=auto;html=1;entryX=0;entryY=0.5;entryDx=0;entryDy=0;fontColor=#1A1A1A;strokeColor=#182E3E;endArrow=classic;endFill=1;labelBackgroundColor=#B0E3E6;exitX=1;exitY=0.5;exitDx=0;exitDy=0;" parent="sqdpiy8trpQjpCW_eLVI-1" source="sqdpiy8trpQjpCW_eLVI-12" target="sqdpiy8trpQjpCW_eLVI-39" edge="1"><mxGeometry relative="1" as="geometry"><mxPoint x="768" y="327" as="sourcePoint"/></mxGeometry></mxCell><mxCell id="sqdpiy8trpQjpCW_eLVI-3" style="edgeStyle=none;rounded=1;sketch=0;orthogonalLoop=1;jettySize=auto;html=1;entryX=0;entryY=0.5;entryDx=0;entryDy=0;fontColor=#1A1A1A;strokeColor=#182E3E;endArrow=none;endFill=0;labelBackgroundColor=#B0E3E6;strokeWidth=3;exitX=1;exitY=0.75;exitDx=0;exitDy=0;" parent="sqdpiy8trpQjpCW_eLVI-1" source="sqdpiy8trpQjpCW_eLVI-12" target="sqdpiy8trpQjpCW_eLVI-41" edge="1"><mxGeometry relative="1" as="geometry"><mxPoint x="778" y="367" as="sourcePoint"/></mxGeometry></mxCell><mxCell id="sqdpiy8trpQjpCW_eLVI-4" style="edgeStyle=none;rounded=1;sketch=0;orthogonalLoop=1;jettySize=auto;html=1;fontColor=#1A1A1A;endArrow=none;endFill=0;strokeColor=#182E3E;strokeWidth=3;exitX=1;exitY=1;exitDx=0;exitDy=0;" parent="sqdpiy8trpQjpCW_eLVI-1" source="sqdpiy8trpQjpCW_eLVI-12" target="sqdpiy8trpQjpCW_eLVI-43" edge="1"><mxGeometry relative="1" as="geometry"><mxPoint x="738" y="377" as="sourcePoint"/></mxGeometry></mxCell><mxCell id="sqdpiy8trpQjpCW_eLVI-5" style="edgeStyle=none;rounded=1;sketch=0;orthogonalLoop=1;jettySize=auto;html=1;exitX=1;exitY=0;exitDx=0;exitDy=0;fontColor=#1A1A1A;endArrow=none;endFill=0;strokeColor=#182E3E;strokeWidth=1;" parent="sqdpiy8trpQjpCW_eLVI-1" source="sqdpiy8trpQjpCW_eLVI-12" target="sqdpiy8trpQjpCW_eLVI-67" edge="1"><mxGeometry relative="1" as="geometry"><mxPoint x="573" y="307" as="targetPoint"/></mxGeometry></mxCell><mxCell id="sqdpiy8trpQjpCW_eLVI-6" style="edgeStyle=none;rounded=1;sketch=0;orthogonalLoop=1;jettySize=auto;html=1;exitX=0.75;exitY=0;exitDx=0;exitDy=0;entryX=0;entryY=1;entryDx=0;entryDy=0;fontColor=#1A1A1A;endArrow=none;endFill=0;strokeColor=#182E3E;strokeWidth=1;" parent="sqdpiy8trpQjpCW_eLVI-1" source="sqdpiy8trpQjpCW_eLVI-12" target="sqdpiy8trpQjpCW_eLVI-66" edge="1"><mxGeometry relative="1" as="geometry"/></mxCell><mxCell id="sqdpiy8trpQjpCW_eLVI-7" style="edgeStyle=none;rounded=1;sketch=0;orthogonalLoop=1;jettySize=auto;html=1;exitX=0.5;exitY=0;exitDx=0;exitDy=0;entryX=0.5;entryY=1;entryDx=0;entryDy=0;fontColor=#1A1A1A;endArrow=none;endFill=0;strokeColor=#182E3E;strokeWidth=1;" parent="sqdpiy8trpQjpCW_eLVI-1" source="sqdpiy8trpQjpCW_eLVI-12" target="sqdpiy8trpQjpCW_eLVI-64" edge="1"><mxGeometry relative="1" as="geometry"/></mxCell><mxCell id="sqdpiy8trpQjpCW_eLVI-8" style="edgeStyle=none;rounded=1;sketch=0;orthogonalLoop=1;jettySize=auto;html=1;exitX=0.25;exitY=0;exitDx=0;exitDy=0;fontColor=#1A1A1A;endArrow=none;endFill=0;strokeColor=#182E3E;strokeWidth=1;entryX=1;entryY=1;entryDx=0;entryDy=0;" parent="sqdpiy8trpQjpCW_eLVI-1" source="sqdpiy8trpQjpCW_eLVI-12" target="sqdpiy8trpQjpCW_eLVI-65" edge="1"><mxGeometry relative="1" as="geometry"><mxPoint x="468" y="247" as="targetPoint"/></mxGeometry></mxCell><mxCell id="sqdpiy8trpQjpCW_eLVI-10" style="edgeStyle=none;rounded=1;sketch=0;orthogonalLoop=1;jettySize=auto;html=1;exitX=0.25;exitY=1;exitDx=0;exitDy=0;entryX=0.5;entryY=0;entryDx=0;entryDy=0;fontColor=#1A1A1A;endArrow=classic;endFill=1;strokeColor=#182E3E;strokeWidth=1;" parent="sqdpiy8trpQjpCW_eLVI-1" source="sqdpiy8trpQjpCW_eLVI-12" target="sqdpiy8trpQjpCW_eLVI-47" edge="1"><mxGeometry relative="1" as="geometry"/></mxCell><mxCell id="sqdpiy8trpQjpCW_eLVI-11" style="edgeStyle=none;rounded=0;orthogonalLoop=1;jettySize=auto;html=1;exitX=0;exitY=0.75;exitDx=0;exitDy=0;entryX=0.5;entryY=0;entryDx=0;entryDy=0;endArrow=classic;endFill=1;strokeWidth=3;strokeColor=#182E3E;" parent="sqdpiy8trpQjpCW_eLVI-1" source="sqdpiy8trpQjpCW_eLVI-12" target="sqdpiy8trpQjpCW_eLVI-102" edge="1"><mxGeometry relative="1" as="geometry"/></mxCell><mxCell id="sqdpiy8trpQjpCW_eLVI-110" style="edgeStyle=none;rounded=0;orthogonalLoop=1;jettySize=auto;html=1;exitX=0;exitY=1;exitDx=0;exitDy=0;entryX=1;entryY=0;entryDx=0;entryDy=0;endArrow=none;endFill=0;strokeColor=#000000;strokeWidth=1;" parent="sqdpiy8trpQjpCW_eLVI-1" source="sqdpiy8trpQjpCW_eLVI-12" target="sqdpiy8trpQjpCW_eLVI-68" edge="1"><mxGeometry relative="1" as="geometry"/></mxCell><mxCell id="sqdpiy8trpQjpCW_eLVI-12" value="villager" style="rounded=0;whiteSpace=wrap;html=1;sketch=0;fontColor=#1A1A1A;strokeColor=#FFFFFF;fillColor=#F08E81;" parent="sqdpiy8trpQjpCW_eLVI-1" vertex="1"><mxGeometry x="438" y="337" width="120" height="60" as="geometry"/></mxCell><mxCell id="sqdpiy8trpQjpCW_eLVI-13" style="edgeStyle=none;rounded=1;sketch=0;orthogonalLoop=1;jettySize=auto;html=1;exitX=0;exitY=0;exitDx=0;exitDy=0;entryX=0.5;entryY=1;entryDx=0;entryDy=0;fontColor=#1A1A1A;endArrow=none;endFill=0;strokeColor=#182E3E;strokeWidth=3;" parent="sqdpiy8trpQjpCW_eLVI-1" source="sqdpiy8trpQjpCW_eLVI-16" target="sqdpiy8trpQjpCW_eLVI-50" edge="1"><mxGeometry relative="1" as="geometry"/></mxCell><mxCell id="sqdpiy8trpQjpCW_eLVI-14" style="edgeStyle=none;rounded=1;sketch=0;orthogonalLoop=1;jettySize=auto;html=1;exitX=0.5;exitY=0;exitDx=0;exitDy=0;entryX=0.5;entryY=1;entryDx=0;entryDy=0;fontColor=#1A1A1A;endArrow=none;endFill=0;strokeColor=#182E3E;strokeWidth=3;" parent="sqdpiy8trpQjpCW_eLVI-1" source="sqdpiy8trpQjpCW_eLVI-16" target="sqdpiy8trpQjpCW_eLVI-51" edge="1"><mxGeometry relative="1" as="geometry"/></mxCell><mxCell id="sqdpiy8trpQjpCW_eLVI-15" style="edgeStyle=none;rounded=1;sketch=0;orthogonalLoop=1;jettySize=auto;html=1;exitX=1;exitY=0;exitDx=0;exitDy=0;entryX=0.5;entryY=1;entryDx=0;entryDy=0;fontColor=#1A1A1A;endArrow=none;endFill=0;strokeColor=#182E3E;strokeWidth=3;" parent="sqdpiy8trpQjpCW_eLVI-1" source="sqdpiy8trpQjpCW_eLVI-16" target="sqdpiy8trpQjpCW_eLVI-52" edge="1"><mxGeometry relative="1" as="geometry"/></mxCell><mxCell id="sqdpiy8trpQjpCW_eLVI-16" value="coffee" style="rounded=0;whiteSpace=wrap;html=1;sketch=0;fontColor=#1A1A1A;strokeColor=#FFFFFF;fillColor=#F08E81;" parent="sqdpiy8trpQjpCW_eLVI-1" vertex="1"><mxGeometry x="1028" y="237" width="120" height="60" as="geometry"/></mxCell><mxCell id="sqdpiy8trpQjpCW_eLVI-17" style="rounded=1;sketch=0;orthogonalLoop=1;jettySize=auto;html=1;exitX=0;exitY=1;exitDx=0;exitDy=0;entryX=0.5;entryY=0;entryDx=0;entryDy=0;fontColor=#1A1A1A;strokeColor=#182E3E;endArrow=none;endFill=0;strokeWidth=3;" parent="sqdpiy8trpQjpCW_eLVI-1" source="sqdpiy8trpQjpCW_eLVI-21" target="sqdpiy8trpQjpCW_eLVI-45" edge="1"><mxGeometry relative="1" as="geometry"/></mxCell><mxCell id="sqdpiy8trpQjpCW_eLVI-18" style="edgeStyle=none;rounded=1;sketch=0;orthogonalLoop=1;jettySize=auto;html=1;exitX=0.5;exitY=0;exitDx=0;exitDy=0;entryX=0.5;entryY=1;entryDx=0;entryDy=0;fontColor=#1A1A1A;endArrow=none;endFill=0;strokeColor=#182E3E;strokeWidth=3;" parent="sqdpiy8trpQjpCW_eLVI-1" source="sqdpiy8trpQjpCW_eLVI-21" target="sqdpiy8trpQjpCW_eLVI-69" edge="1"><mxGeometry relative="1" as="geometry"/></mxCell><mxCell id="sqdpiy8trpQjpCW_eLVI-19" style="edgeStyle=none;rounded=1;sketch=0;orthogonalLoop=1;jettySize=auto;html=1;exitX=1;exitY=0;exitDx=0;exitDy=0;entryX=0;entryY=1;entryDx=0;entryDy=0;fontColor=#1A1A1A;endArrow=none;endFill=0;strokeColor=#182E3E;strokeWidth=3;" parent="sqdpiy8trpQjpCW_eLVI-1" source="sqdpiy8trpQjpCW_eLVI-21" target="sqdpiy8trpQjpCW_eLVI-70" edge="1"><mxGeometry relative="1" as="geometry"/></mxCell><mxCell id="sqdpiy8trpQjpCW_eLVI-20" style="edgeStyle=none;rounded=1;sketch=0;orthogonalLoop=1;jettySize=auto;html=1;exitX=1;exitY=0.5;exitDx=0;exitDy=0;entryX=0;entryY=0.5;entryDx=0;entryDy=0;fontColor=#1A1A1A;endArrow=none;endFill=0;strokeColor=#182E3E;strokeWidth=1;" parent="sqdpiy8trpQjpCW_eLVI-1" source="sqdpiy8trpQjpCW_eLVI-21" target="sqdpiy8trpQjpCW_eLVI-71" edge="1"><mxGeometry relative="1" as="geometry"/></mxCell><mxCell id="sqdpiy8trpQjpCW_eLVI-103" style="rounded=0;orthogonalLoop=1;jettySize=auto;html=1;exitX=1;exitY=1;exitDx=0;exitDy=0;entryX=0;entryY=0;entryDx=0;entryDy=0;endArrow=none;endFill=0;strokeWidth=3;strokeColor=#182E3E;" parent="sqdpiy8trpQjpCW_eLVI-1" source="sqdpiy8trpQjpCW_eLVI-21" target="sqdpiy8trpQjpCW_eLVI-95" edge="1"><mxGeometry relative="1" as="geometry"/></mxCell><mxCell id="sqdpiy8trpQjpCW_eLVI-109" style="edgeStyle=none;rounded=0;orthogonalLoop=1;jettySize=auto;html=1;exitX=0;exitY=0.5;exitDx=0;exitDy=0;entryX=1;entryY=1;entryDx=0;entryDy=0;endArrow=none;endFill=0;strokeWidth=3;strokeColor=#182E3E;" parent="sqdpiy8trpQjpCW_eLVI-1" source="sqdpiy8trpQjpCW_eLVI-21" target="sqdpiy8trpQjpCW_eLVI-107" edge="1"><mxGeometry relative="1" as="geometry"/></mxCell><mxCell id="sqdpiy8trpQjpCW_eLVI-117" value="" style="edgeStyle=none;rounded=1;orthogonalLoop=1;jettySize=auto;html=1;endArrow=none;endFill=0;strokeColor=#182E3E;strokeWidth=3;" parent="sqdpiy8trpQjpCW_eLVI-1" source="sqdpiy8trpQjpCW_eLVI-21" target="sqdpiy8trpQjpCW_eLVI-69" edge="1"><mxGeometry relative="1" as="geometry"/></mxCell><mxCell id="sqdpiy8trpQjpCW_eLVI-21" value="house" style="rounded=0;whiteSpace=wrap;html=1;sketch=0;fontColor=#1A1A1A;strokeColor=#FFFFFF;fillColor=#F08E81;" parent="sqdpiy8trpQjpCW_eLVI-1" vertex="1"><mxGeometry x="1070" y="720" width="120" height="60" as="geometry"/></mxCell><mxCell id="sqdpiy8trpQjpCW_eLVI-22" style="rounded=1;sketch=0;orthogonalLoop=1;jettySize=auto;html=1;exitX=0.25;exitY=0;exitDx=0;exitDy=0;entryX=0.5;entryY=1;entryDx=0;entryDy=0;fontColor=#1A1A1A;endArrow=none;endFill=0;strokeColor=#182E3E;strokeWidth=3;" parent="sqdpiy8trpQjpCW_eLVI-1" source="sqdpiy8trpQjpCW_eLVI-27" target="sqdpiy8trpQjpCW_eLVI-74" edge="1"><mxGeometry relative="1" as="geometry"/></mxCell><mxCell id="sqdpiy8trpQjpCW_eLVI-23" style="edgeStyle=none;rounded=1;sketch=0;orthogonalLoop=1;jettySize=auto;html=1;exitX=0.75;exitY=0;exitDx=0;exitDy=0;entryX=0;entryY=1;entryDx=0;entryDy=0;fontColor=#1A1A1A;endArrow=none;endFill=0;strokeColor=#182E3E;strokeWidth=3;" parent="sqdpiy8trpQjpCW_eLVI-1" source="sqdpiy8trpQjpCW_eLVI-27" target="sqdpiy8trpQjpCW_eLVI-75" edge="1"><mxGeometry relative="1" as="geometry"/></mxCell><mxCell id="sqdpiy8trpQjpCW_eLVI-24" style="edgeStyle=none;rounded=1;sketch=0;orthogonalLoop=1;jettySize=auto;html=1;exitX=1;exitY=0;exitDx=0;exitDy=0;entryX=0;entryY=0.5;entryDx=0;entryDy=0;fontColor=#1A1A1A;endArrow=none;endFill=0;strokeColor=#182E3E;strokeWidth=1;" parent="sqdpiy8trpQjpCW_eLVI-1" source="sqdpiy8trpQjpCW_eLVI-27" target="sqdpiy8trpQjpCW_eLVI-76" edge="1"><mxGeometry relative="1" as="geometry"/></mxCell><mxCell id="sqdpiy8trpQjpCW_eLVI-25" style="edgeStyle=none;rounded=1;sketch=0;orthogonalLoop=1;jettySize=auto;html=1;exitX=1;exitY=0.75;exitDx=0;exitDy=0;fontColor=#1A1A1A;endArrow=none;endFill=0;strokeColor=#182E3E;strokeWidth=1;" parent="sqdpiy8trpQjpCW_eLVI-1" source="sqdpiy8trpQjpCW_eLVI-27" target="sqdpiy8trpQjpCW_eLVI-78" edge="1"><mxGeometry relative="1" as="geometry"/></mxCell><mxCell id="sqdpiy8trpQjpCW_eLVI-26" style="edgeStyle=none;rounded=1;sketch=0;orthogonalLoop=1;jettySize=auto;html=1;exitX=0;exitY=0.5;exitDx=0;exitDy=0;entryX=1;entryY=0.5;entryDx=0;entryDy=0;fontColor=#1A1A1A;endArrow=none;endFill=0;strokeWidth=3;strokeColor=#182E3E;" parent="sqdpiy8trpQjpCW_eLVI-1" source="sqdpiy8trpQjpCW_eLVI-27" target="sqdpiy8trpQjpCW_eLVI-77" edge="1"><mxGeometry relative="1" as="geometry"/></mxCell><mxCell id="sqdpiy8trpQjpCW_eLVI-27" value="furniture" style="rounded=0;whiteSpace=wrap;html=1;sketch=0;fontColor=#1A1A1A;strokeColor=#FFFFFF;fillColor=#F08E81;" parent="sqdpiy8trpQjpCW_eLVI-1" vertex="1"><mxGeometry x="1028" y="987" width="120" height="60" as="geometry"/></mxCell><mxCell id="sqdpiy8trpQjpCW_eLVI-28" style="edgeStyle=none;rounded=1;sketch=0;orthogonalLoop=1;jettySize=auto;html=1;exitX=0;exitY=0;exitDx=0;exitDy=0;entryX=0.5;entryY=1;entryDx=0;entryDy=0;fontColor=#1A1A1A;endArrow=none;endFill=0;strokeWidth=3;strokeColor=#182E3E;" parent="sqdpiy8trpQjpCW_eLVI-1" source="sqdpiy8trpQjpCW_eLVI-30" target="sqdpiy8trpQjpCW_eLVI-73" edge="1"><mxGeometry relative="1" as="geometry"/></mxCell><mxCell id="sqdpiy8trpQjpCW_eLVI-29" style="edgeStyle=none;rounded=1;sketch=0;orthogonalLoop=1;jettySize=auto;html=1;exitX=0.75;exitY=0;exitDx=0;exitDy=0;entryX=0.5;entryY=1;entryDx=0;entryDy=0;fontColor=#1A1A1A;endArrow=none;endFill=0;strokeWidth=3;strokeColor=#182E3E;" parent="sqdpiy8trpQjpCW_eLVI-1" source="sqdpiy8trpQjpCW_eLVI-30" target="sqdpiy8trpQjpCW_eLVI-72" edge="1"><mxGeometry relative="1" as="geometry"/></mxCell><mxCell id="sqdpiy8trpQjpCW_eLVI-30" value="game" style="rounded=0;whiteSpace=wrap;html=1;sketch=0;fontColor=#1A1A1A;strokeColor=#FFFFFF;fillColor=#F08E81;" parent="sqdpiy8trpQjpCW_eLVI-1" vertex="1"><mxGeometry x="708" y="657" width="120" height="60" as="geometry"/></mxCell><mxCell id="sqdpiy8trpQjpCW_eLVI-31" style="edgeStyle=none;rounded=1;sketch=0;orthogonalLoop=1;jettySize=auto;html=1;entryX=0.5;entryY=1;entryDx=0;entryDy=0;fontColor=#1A1A1A;endArrow=none;endFill=0;strokeColor=#182E3E;strokeWidth=3;exitX=0;exitY=0;exitDx=0;exitDy=0;" parent="sqdpiy8trpQjpCW_eLVI-1" source="sqdpiy8trpQjpCW_eLVI-34" target="sqdpiy8trpQjpCW_eLVI-80" edge="1"><mxGeometry relative="1" as="geometry"><mxPoint x="358" y="817" as="sourcePoint"/></mxGeometry></mxCell><mxCell id="sqdpiy8trpQjpCW_eLVI-32" style="edgeStyle=none;rounded=1;sketch=0;orthogonalLoop=1;jettySize=auto;html=1;exitX=0.75;exitY=0;exitDx=0;exitDy=0;entryX=0;entryY=1;entryDx=0;entryDy=0;fontColor=#1A1A1A;endArrow=none;endFill=0;strokeWidth=3;strokeColor=#182E3E;" parent="sqdpiy8trpQjpCW_eLVI-1" source="sqdpiy8trpQjpCW_eLVI-34" target="sqdpiy8trpQjpCW_eLVI-79" edge="1"><mxGeometry relative="1" as="geometry"/></mxCell><mxCell id="sqdpiy8trpQjpCW_eLVI-34" value="amiibo" style="rounded=0;whiteSpace=wrap;html=1;sketch=0;fontColor=#1A1A1A;strokeColor=#FFFFFF;fillColor=#F08E81;" parent="sqdpiy8trpQjpCW_eLVI-1" vertex="1"><mxGeometry x="368" y="817" width="120" height="60" as="geometry"/></mxCell><mxCell id="sqdpiy8trpQjpCW_eLVI-38" style="edgeStyle=none;rounded=1;sketch=0;orthogonalLoop=1;jettySize=auto;html=1;exitX=0;exitY=0.5;exitDx=0;exitDy=0;entryX=1;entryY=0.5;entryDx=0;entryDy=0;fontColor=#1A1A1A;strokeColor=#182E3E;endArrow=none;endFill=0;labelBackgroundColor=#B0E3E6;" parent="sqdpiy8trpQjpCW_eLVI-1" source="sqdpiy8trpQjpCW_eLVI-16" target="sqdpiy8trpQjpCW_eLVI-39" edge="1"><mxGeometry relative="1" as="geometry"/></mxCell><mxCell id="sqdpiy8trpQjpCW_eLVI-39" value="drinks" style="rhombus;whiteSpace=wrap;html=1;rounded=0;sketch=0;fontColor=#1A1A1A;strokeColor=#FFFFFF;fillColor=#F08E81;" parent="sqdpiy8trpQjpCW_eLVI-1" vertex="1"><mxGeometry x="853" y="227" width="80" height="80" as="geometry"/></mxCell><mxCell id="sqdpiy8trpQjpCW_eLVI-40" style="edgeStyle=none;rounded=1;sketch=0;orthogonalLoop=1;jettySize=auto;html=1;exitX=0;exitY=0;exitDx=0;exitDy=0;fontColor=#1A1A1A;strokeColor=#182E3E;endArrow=classic;endFill=1;labelBackgroundColor=#B0E3E6;strokeWidth=3;entryX=0.5;entryY=1;entryDx=0;entryDy=0;" parent="sqdpiy8trpQjpCW_eLVI-1" source="sqdpiy8trpQjpCW_eLVI-21" target="sqdpiy8trpQjpCW_eLVI-41" edge="1"><mxGeometry relative="1" as="geometry"><mxPoint x="1058" y="497" as="targetPoint"/></mxGeometry></mxCell><mxCell id="sqdpiy8trpQjpCW_eLVI-41" value="lives in" style="rhombus;whiteSpace=wrap;html=1;rounded=0;sketch=0;fontColor=#1A1A1A;strokeColor=#FFFFFF;fillColor=#F08E81;" parent="sqdpiy8trpQjpCW_eLVI-1" vertex="1"><mxGeometry x="988" y="407" width="80" height="80" as="geometry"/></mxCell><mxCell id="sqdpiy8trpQjpCW_eLVI-42" style="edgeStyle=none;rounded=1;sketch=0;orthogonalLoop=1;jettySize=auto;html=1;exitX=0.5;exitY=1;exitDx=0;exitDy=0;entryX=0.25;entryY=0;entryDx=0;entryDy=0;fontColor=#1A1A1A;endArrow=none;endFill=0;strokeWidth=3;strokeColor=#182E3E;" parent="sqdpiy8trpQjpCW_eLVI-1" source="sqdpiy8trpQjpCW_eLVI-43" target="sqdpiy8trpQjpCW_eLVI-30" edge="1"><mxGeometry relative="1" as="geometry"/></mxCell><mxCell id="sqdpiy8trpQjpCW_eLVI-43" value="featured in" style="rhombus;whiteSpace=wrap;html=1;rounded=0;sketch=0;fontColor=#1A1A1A;strokeColor=#FFFFFF;fillColor=#F08E81;" parent="sqdpiy8trpQjpCW_eLVI-1" vertex="1"><mxGeometry x="718" y="457" width="80" height="80" as="geometry"/></mxCell><mxCell id="sqdpiy8trpQjpCW_eLVI-44" style="edgeStyle=none;rounded=1;sketch=0;orthogonalLoop=1;jettySize=auto;html=1;exitX=0;exitY=0;exitDx=0;exitDy=0;entryX=0.5;entryY=1;entryDx=0;entryDy=0;fontColor=#1A1A1A;endArrow=none;endFill=0;strokeColor=#182E3E;strokeWidth=3;" parent="sqdpiy8trpQjpCW_eLVI-1" source="sqdpiy8trpQjpCW_eLVI-27" target="sqdpiy8trpQjpCW_eLVI-45" edge="1"><mxGeometry relative="1" as="geometry"/></mxCell><mxCell id="sqdpiy8trpQjpCW_eLVI-45" value="contains" style="rhombus;whiteSpace=wrap;html=1;rounded=0;sketch=0;fontColor=#1A1A1A;strokeColor=#FFFFFF;fillColor=#F08E81;" parent="sqdpiy8trpQjpCW_eLVI-1" vertex="1"><mxGeometry x="893" y="847" width="80" height="80" as="geometry"/></mxCell><mxCell id="sqdpiy8trpQjpCW_eLVI-46" style="edgeStyle=none;rounded=1;sketch=0;orthogonalLoop=1;jettySize=auto;html=1;exitX=0.5;exitY=0;exitDx=0;exitDy=0;entryX=0.5;entryY=1;entryDx=0;entryDy=0;fontColor=#1A1A1A;endArrow=classic;endFill=1;strokeColor=#182E3E;strokeWidth=1;" parent="sqdpiy8trpQjpCW_eLVI-1" source="sqdpiy8trpQjpCW_eLVI-34" target="sqdpiy8trpQjpCW_eLVI-47" edge="1"><mxGeometry relative="1" as="geometry"/></mxCell><mxCell id="sqdpiy8trpQjpCW_eLVI-47" value="has" style="rhombus;whiteSpace=wrap;html=1;rounded=0;sketch=0;fontColor=#1A1A1A;strokeColor=#FFFFFF;fillColor=#F08E81;" parent="sqdpiy8trpQjpCW_eLVI-1" vertex="1"><mxGeometry x="383" y="627" width="80" height="80" as="geometry"/></mxCell><mxCell id="sqdpiy8trpQjpCW_eLVI-50" value="beans" style="ellipse;whiteSpace=wrap;html=1;rounded=0;sketch=0;fontColor=#1A1A1A;strokeColor=#FFFFFF;fillColor=#F08E81;" parent="sqdpiy8trpQjpCW_eLVI-1" vertex="1"><mxGeometry x="938" y="127" width="90" height="60" as="geometry"/></mxCell><mxCell id="sqdpiy8trpQjpCW_eLVI-51" value="milk" style="ellipse;whiteSpace=wrap;html=1;rounded=0;sketch=0;fontColor=#1A1A1A;strokeColor=#FFFFFF;fillColor=#F08E81;" parent="sqdpiy8trpQjpCW_eLVI-1" vertex="1"><mxGeometry x="1043" y="127" width="90" height="60" as="geometry"/></mxCell><mxCell id="sqdpiy8trpQjpCW_eLVI-52" value="sugar" style="ellipse;whiteSpace=wrap;html=1;rounded=0;sketch=0;fontColor=#1A1A1A;strokeColor=#FFFFFF;fillColor=#F08E81;" parent="sqdpiy8trpQjpCW_eLVI-1" vertex="1"><mxGeometry x="1148" y="127" width="90" height="60" as="geometry"/></mxCell><mxCell id="sqdpiy8trpQjpCW_eLVI-53" style="edgeStyle=none;rounded=1;sketch=0;orthogonalLoop=1;jettySize=auto;html=1;exitX=0.5;exitY=0;exitDx=0;exitDy=0;fontColor=#1A1A1A;endArrow=none;endFill=0;strokeColor=#182E3E;strokeWidth=3;entryX=0.75;entryY=1;entryDx=0;entryDy=0;" parent="sqdpiy8trpQjpCW_eLVI-1" source="sqdpiy8trpQjpCW_eLVI-54" target="sqdpiy8trpQjpCW_eLVI-12" edge="1"><mxGeometry relative="1" as="geometry"><mxPoint x="518" y="417" as="targetPoint"/></mxGeometry></mxCell><mxCell id="sqdpiy8trpQjpCW_eLVI-54" value="&lt;u&gt;id&lt;br&gt;&lt;/u&gt;" style="ellipse;whiteSpace=wrap;html=1;rounded=0;sketch=0;fontColor=#1A1A1A;strokeColor=#FFFFFF;fillColor=#F08E81;" parent="sqdpiy8trpQjpCW_eLVI-1" vertex="1"><mxGeometry x="548" y="430" width="90" height="60" as="geometry"/></mxCell><mxCell id="sqdpiy8trpQjpCW_eLVI-57" value="species" style="ellipse;whiteSpace=wrap;html=1;rounded=0;sketch=0;fontColor=#1A1A1A;strokeColor=#FFFFFF;fillColor=#F08E81;" parent="sqdpiy8trpQjpCW_eLVI-1" vertex="1"><mxGeometry x="288" y="277" width="90" height="60" as="geometry"/></mxCell><mxCell id="sqdpiy8trpQjpCW_eLVI-58" style="edgeStyle=none;rounded=1;sketch=0;orthogonalLoop=1;jettySize=auto;html=1;exitX=1;exitY=0.5;exitDx=0;exitDy=0;entryX=0;entryY=0.5;entryDx=0;entryDy=0;fontColor=#1A1A1A;endArrow=none;endFill=0;strokeColor=#182E3E;strokeWidth=1;" parent="sqdpiy8trpQjpCW_eLVI-1" source="sqdpiy8trpQjpCW_eLVI-59" target="sqdpiy8trpQjpCW_eLVI-12" edge="1"><mxGeometry relative="1" as="geometry"/></mxCell><mxCell id="sqdpiy8trpQjpCW_eLVI-59" value="subtype" style="ellipse;whiteSpace=wrap;html=1;rounded=0;sketch=0;fontColor=#1A1A1A;strokeColor=#FFFFFF;fillColor=#F08E81;" parent="sqdpiy8trpQjpCW_eLVI-1" vertex="1"><mxGeometry x="288" y="347" width="90" height="60" as="geometry"/></mxCell><mxCell id="sqdpiy8trpQjpCW_eLVI-60" style="edgeStyle=none;rounded=1;sketch=0;orthogonalLoop=1;jettySize=auto;html=1;entryX=0;entryY=0.25;entryDx=0;entryDy=0;fontColor=#1A1A1A;endArrow=none;endFill=0;strokeColor=#182E3E;strokeWidth=3;exitX=1;exitY=0.5;exitDx=0;exitDy=0;" parent="sqdpiy8trpQjpCW_eLVI-1" source="sqdpiy8trpQjpCW_eLVI-57" target="sqdpiy8trpQjpCW_eLVI-12" edge="1"><mxGeometry relative="1" as="geometry"><mxPoint x="390" y="310" as="sourcePoint"/></mxGeometry></mxCell><mxCell id="sqdpiy8trpQjpCW_eLVI-62" style="edgeStyle=none;rounded=1;sketch=0;orthogonalLoop=1;jettySize=auto;html=1;entryX=0;entryY=0;entryDx=0;entryDy=0;fontColor=#1A1A1A;endArrow=none;endFill=0;strokeColor=#182E3E;strokeWidth=3;exitX=1;exitY=1;exitDx=0;exitDy=0;" parent="sqdpiy8trpQjpCW_eLVI-1" source="sqdpiy8trpQjpCW_eLVI-63" target="sqdpiy8trpQjpCW_eLVI-12" edge="1"><mxGeometry relative="1" as="geometry"><mxPoint x="408" y="267" as="sourcePoint"/></mxGeometry></mxCell><mxCell id="sqdpiy8trpQjpCW_eLVI-63" value="birthday" style="ellipse;whiteSpace=wrap;html=1;rounded=0;sketch=0;fontColor=#1A1A1A;strokeColor=#FFFFFF;fillColor=#F08E81;" parent="sqdpiy8trpQjpCW_eLVI-1" vertex="1"><mxGeometry x="318" y="207" width="90" height="60" as="geometry"/></mxCell><mxCell id="sqdpiy8trpQjpCW_eLVI-64" value="hobby" style="ellipse;whiteSpace=wrap;html=1;rounded=0;sketch=0;fontColor=#1A1A1A;strokeColor=#FFFFFF;fillColor=#F08E81;" parent="sqdpiy8trpQjpCW_eLVI-1" vertex="1"><mxGeometry x="468" y="147" width="90" height="60" as="geometry"/></mxCell><mxCell id="sqdpiy8trpQjpCW_eLVI-65" value="catchphrase" style="ellipse;whiteSpace=wrap;html=1;rounded=0;sketch=0;fontColor=#1A1A1A;strokeColor=#FFFFFF;fillColor=#F08E81;" parent="sqdpiy8trpQjpCW_eLVI-1" vertex="1"><mxGeometry x="378" y="157" width="90" height="60" as="geometry"/></mxCell><mxCell id="sqdpiy8trpQjpCW_eLVI-66" value="favourite color" style="ellipse;whiteSpace=wrap;html=1;rounded=0;sketch=0;fontColor=#1A1A1A;strokeColor=#FFFFFF;fillColor=#F08E81;" parent="sqdpiy8trpQjpCW_eLVI-1" vertex="1"><mxGeometry x="528" y="207" width="90" height="60" as="geometry"/></mxCell><mxCell id="sqdpiy8trpQjpCW_eLVI-67" value="favourite song" style="ellipse;whiteSpace=wrap;html=1;rounded=0;sketch=0;fontColor=#1A1A1A;strokeColor=#FFFFFF;fillColor=#F08E81;" parent="sqdpiy8trpQjpCW_eLVI-1" vertex="1"><mxGeometry x="598" y="257" width="90" height="60" as="geometry"/></mxCell><mxCell id="sqdpiy8trpQjpCW_eLVI-68" value="is sanrio?" style="ellipse;whiteSpace=wrap;html=1;rounded=0;sketch=0;fontColor=#1A1A1A;strokeColor=#FFFFFF;fillColor=#F08E81;" parent="sqdpiy8trpQjpCW_eLVI-1" vertex="1"><mxGeometry x="348" y="427" width="90" height="60" as="geometry"/></mxCell><mxCell id="sqdpiy8trpQjpCW_eLVI-69" value="wallpaper" style="ellipse;whiteSpace=wrap;html=1;rounded=0;sketch=0;fontColor=#1A1A1A;strokeColor=#FFFFFF;fillColor=#F08E81;" parent="sqdpiy8trpQjpCW_eLVI-1" vertex="1"><mxGeometry x="1085" y="620" width="90" height="60" as="geometry"/></mxCell><mxCell id="sqdpiy8trpQjpCW_eLVI-70" value="floor&lt;span style=&quot;color: rgba(0 , 0 , 0 , 0) ; font-family: monospace ; font-size: 0px&quot;&gt;%3CmxGraphModel%3E%3Croot%3E%3CmxCell%20id%3D%220%22%2F%3E%3CmxCell%20id%3D%221%22%20parent%3D%220%22%2F%3E%3CmxCell%20id%3D%222%22%20value%3D%22%22%20style%3D%22ellipse%3BwhiteSpace%3Dwrap%3Bhtml%3D1%3Brounded%3D0%3Bsketch%3D0%3BfontColor%3D%231A1A1A%3BstrokeColor%3D%23FFFFFF%3BfillColor%3D%23F08E81%3B%22%20vertex%3D%221%22%20parent%3D%221%22%3E%3CmxGeometry%20x%3D%22240%22%20y%3D%2250%22%20width%3D%2290%22%20height%3D%2260%22%20as%3D%22geometry%22%2F%3E%3C%2FmxCell%3E%3C%2Froot%3E%3C%2FmxGraphModel%3E&lt;/span&gt;" style="ellipse;whiteSpace=wrap;html=1;rounded=0;sketch=0;fontColor=#1A1A1A;strokeColor=#FFFFFF;fillColor=#F08E81;" parent="sqdpiy8trpQjpCW_eLVI-1" vertex="1"><mxGeometry x="1190" y="640" width="90" height="60" as="geometry"/></mxCell><mxCell id="sqdpiy8trpQjpCW_eLVI-71" value="music playing" style="ellipse;whiteSpace=wrap;html=1;rounded=0;sketch=0;fontColor=#1A1A1A;strokeColor=#FFFFFF;fillColor=#F08E81;" parent="sqdpiy8trpQjpCW_eLVI-1" vertex="1"><mxGeometry x="1210" y="720" width="90" height="60" as="geometry"/></mxCell><mxCell id="sqdpiy8trpQjpCW_eLVI-72" value="&lt;u&gt;name&lt;/u&gt;" style="ellipse;whiteSpace=wrap;html=1;rounded=0;sketch=0;fontColor=#1A1A1A;strokeColor=#FFFFFF;fillColor=#F08E81;" parent="sqdpiy8trpQjpCW_eLVI-1" vertex="1"><mxGeometry x="788" y="577" width="90" height="60" as="geometry"/></mxCell><mxCell id="sqdpiy8trpQjpCW_eLVI-73" value="year released" style="ellipse;whiteSpace=wrap;html=1;rounded=0;sketch=0;fontColor=#1A1A1A;strokeColor=#FFFFFF;fillColor=#F08E81;" parent="sqdpiy8trpQjpCW_eLVI-1" vertex="1"><mxGeometry x="618" y="587" width="90" height="60" as="geometry"/></mxCell><mxCell id="sqdpiy8trpQjpCW_eLVI-74" value="buy price" style="ellipse;whiteSpace=wrap;html=1;rounded=0;sketch=0;fontColor=#1A1A1A;strokeColor=#FFFFFF;fillColor=#F08E81;" parent="sqdpiy8trpQjpCW_eLVI-1" vertex="1"><mxGeometry x="1003" y="897" width="90" height="60" as="geometry"/></mxCell><mxCell id="sqdpiy8trpQjpCW_eLVI-75" value="sell price" style="ellipse;whiteSpace=wrap;html=1;rounded=0;sketch=0;fontColor=#1A1A1A;strokeColor=#FFFFFF;fillColor=#F08E81;" parent="sqdpiy8trpQjpCW_eLVI-1" vertex="1"><mxGeometry x="1113" y="897" width="90" height="60" as="geometry"/></mxCell><mxCell id="sqdpiy8trpQjpCW_eLVI-76" value="style" style="ellipse;whiteSpace=wrap;html=1;rounded=0;sketch=0;fontColor=#1A1A1A;strokeColor=#FFFFFF;fillColor=#F08E81;" parent="sqdpiy8trpQjpCW_eLVI-1" vertex="1"><mxGeometry x="1183" y="957" width="90" height="60" as="geometry"/></mxCell><mxCell id="sqdpiy8trpQjpCW_eLVI-77" value="&lt;u&gt;id&lt;/u&gt;" style="ellipse;whiteSpace=wrap;html=1;rounded=0;sketch=0;fontColor=#1A1A1A;strokeColor=#FFFFFF;fillColor=#F08E81;" parent="sqdpiy8trpQjpCW_eLVI-1" vertex="1"><mxGeometry x="921" y="974" width="90" height="60" as="geometry"/></mxCell><mxCell id="sqdpiy8trpQjpCW_eLVI-78" value="placeable on surface" style="ellipse;whiteSpace=wrap;html=1;rounded=0;sketch=0;fontColor=#1A1A1A;strokeColor=#FFFFFF;fillColor=#F08E81;" parent="sqdpiy8trpQjpCW_eLVI-1" vertex="1"><mxGeometry x="1163" y="1037" width="90" height="60" as="geometry"/></mxCell><mxCell id="sqdpiy8trpQjpCW_eLVI-79" value="&lt;u&gt;id&lt;/u&gt;" style="ellipse;whiteSpace=wrap;html=1;rounded=0;sketch=0;fontColor=#1A1A1A;strokeColor=#FFFFFF;fillColor=#F08E81;" parent="sqdpiy8trpQjpCW_eLVI-1" vertex="1"><mxGeometry x="453" y="727" width="90" height="60" as="geometry"/></mxCell><mxCell id="sqdpiy8trpQjpCW_eLVI-80" value="&lt;u&gt;series&lt;/u&gt;" style="ellipse;whiteSpace=wrap;html=1;rounded=0;sketch=0;fontColor=#1A1A1A;strokeColor=#FFFFFF;fillColor=#F08E81;" parent="sqdpiy8trpQjpCW_eLVI-1" vertex="1"><mxGeometry x="308" y="727" width="90" height="60" as="geometry"/></mxCell><mxCell id="sqdpiy8trpQjpCW_eLVI-82" value="" style="edgeStyle=none;rounded=0;orthogonalLoop=1;jettySize=auto;html=1;endArrow=none;endFill=0;strokeWidth=3;strokeColor=#182E3E;" parent="sqdpiy8trpQjpCW_eLVI-1" source="sqdpiy8trpQjpCW_eLVI-83" target="sqdpiy8trpQjpCW_eLVI-34" edge="1"><mxGeometry relative="1" as="geometry"/></mxCell><mxCell id="sqdpiy8trpQjpCW_eLVI-83" value="card id" style="ellipse;whiteSpace=wrap;html=1;rounded=0;sketch=0;fontColor=#1A1A1A;strokeColor=#FFFFFF;fillColor=#F08E81;" parent="sqdpiy8trpQjpCW_eLVI-1" vertex="1"><mxGeometry x="240" y="817" width="90" height="60" as="geometry"/></mxCell><mxCell id="sqdpiy8trpQjpCW_eLVI-106" style="edgeStyle=none;rounded=0;orthogonalLoop=1;jettySize=auto;html=1;exitX=1;exitY=0;exitDx=0;exitDy=0;entryX=0.25;entryY=1;entryDx=0;entryDy=0;endArrow=none;endFill=0;strokeColor=#000000;strokeWidth=1;" parent="sqdpiy8trpQjpCW_eLVI-1" source="sqdpiy8trpQjpCW_eLVI-87" target="sqdpiy8trpQjpCW_eLVI-27" edge="1"><mxGeometry relative="1" as="geometry"/></mxCell><mxCell id="sqdpiy8trpQjpCW_eLVI-87" value="length" style="ellipse;whiteSpace=wrap;html=1;rounded=0;sketch=0;fontColor=#1A1A1A;strokeColor=#FFFFFF;fillColor=#F08E81;" parent="sqdpiy8trpQjpCW_eLVI-1" vertex="1"><mxGeometry x="978" y="1082" width="90" height="60" as="geometry"/></mxCell><mxCell id="sqdpiy8trpQjpCW_eLVI-88" style="edgeStyle=none;rounded=0;orthogonalLoop=1;jettySize=auto;html=1;exitX=0.5;exitY=0;exitDx=0;exitDy=0;entryX=0.5;entryY=1;entryDx=0;entryDy=0;endArrow=none;endFill=0;strokeWidth=3;strokeColor=#182E3E;" parent="sqdpiy8trpQjpCW_eLVI-1" source="sqdpiy8trpQjpCW_eLVI-89" target="sqdpiy8trpQjpCW_eLVI-16" edge="1"><mxGeometry relative="1" as="geometry"/></mxCell><mxCell id="sqdpiy8trpQjpCW_eLVI-89" value="&lt;u&gt;id&lt;/u&gt;" style="ellipse;whiteSpace=wrap;html=1;rounded=0;sketch=0;fontColor=#1A1A1A;strokeColor=#FFFFFF;fillColor=#F08E81;" parent="sqdpiy8trpQjpCW_eLVI-1" vertex="1"><mxGeometry x="1043" y="330" width="90" height="60" as="geometry"/></mxCell><mxCell id="sqdpiy8trpQjpCW_eLVI-90" style="edgeStyle=none;rounded=0;orthogonalLoop=1;jettySize=auto;html=1;exitX=0.5;exitY=0;exitDx=0;exitDy=0;entryX=0.5;entryY=1;entryDx=0;entryDy=0;endArrow=none;endFill=0;strokeWidth=3;strokeColor=#182E3E;" parent="sqdpiy8trpQjpCW_eLVI-1" source="sqdpiy8trpQjpCW_eLVI-91" target="sqdpiy8trpQjpCW_eLVI-30" edge="1"><mxGeometry relative="1" as="geometry"/></mxCell><mxCell id="sqdpiy8trpQjpCW_eLVI-91" value="&lt;u&gt;id&lt;/u&gt;" style="ellipse;whiteSpace=wrap;html=1;rounded=0;sketch=0;fontColor=#1A1A1A;strokeColor=#FFFFFF;fillColor=#F08E81;" parent="sqdpiy8trpQjpCW_eLVI-1" vertex="1"><mxGeometry x="723" y="757" width="90" height="60" as="geometry"/></mxCell><mxCell id="sqdpiy8trpQjpCW_eLVI-92" style="edgeStyle=none;rounded=0;orthogonalLoop=1;jettySize=auto;html=1;exitX=1;exitY=0.5;exitDx=0;exitDy=0;entryX=0;entryY=0.5;entryDx=0;entryDy=0;endArrow=none;endFill=0;strokeWidth=3;strokeColor=#182E3E;" parent="sqdpiy8trpQjpCW_eLVI-1" source="sqdpiy8trpQjpCW_eLVI-93" target="sqdpiy8trpQjpCW_eLVI-30" edge="1"><mxGeometry relative="1" as="geometry"/></mxCell><mxCell id="sqdpiy8trpQjpCW_eLVI-93" value="console" style="ellipse;whiteSpace=wrap;html=1;rounded=0;sketch=0;fontColor=#1A1A1A;strokeColor=#FFFFFF;fillColor=#F08E81;" parent="sqdpiy8trpQjpCW_eLVI-1" vertex="1"><mxGeometry x="578" y="657" width="90" height="60" as="geometry"/></mxCell><mxCell id="sqdpiy8trpQjpCW_eLVI-95" value="&lt;u&gt;id&lt;/u&gt;" style="ellipse;whiteSpace=wrap;html=1;rounded=0;sketch=0;fontColor=#1A1A1A;strokeColor=#FFFFFF;fillColor=#F08E81;" parent="sqdpiy8trpQjpCW_eLVI-1" vertex="1"><mxGeometry x="1200" y="800" width="90" height="60" as="geometry"/></mxCell><mxCell id="sqdpiy8trpQjpCW_eLVI-96" value="personality" style="rounded=0;whiteSpace=wrap;html=1;sketch=0;fontColor=#1A1A1A;strokeColor=#FFFFFF;fillColor=#F08E81;" parent="sqdpiy8trpQjpCW_eLVI-1" vertex="1"><mxGeometry x="160" y="560" width="120" height="60" as="geometry"/></mxCell><mxCell id="sqdpiy8trpQjpCW_eLVI-97" style="edgeStyle=none;rounded=0;orthogonalLoop=1;jettySize=auto;html=1;exitX=0.5;exitY=1;exitDx=0;exitDy=0;entryX=0;entryY=0;entryDx=0;entryDy=0;endArrow=none;endFill=0;strokeWidth=3;strokeColor=#182E3E;" parent="sqdpiy8trpQjpCW_eLVI-1" source="sqdpiy8trpQjpCW_eLVI-98" target="sqdpiy8trpQjpCW_eLVI-96" edge="1"><mxGeometry relative="1" as="geometry"/></mxCell><mxCell id="sqdpiy8trpQjpCW_eLVI-98" value="&lt;u&gt;type&lt;/u&gt;" style="ellipse;whiteSpace=wrap;html=1;rounded=0;sketch=0;fontColor=#1A1A1A;strokeColor=#FFFFFF;fillColor=#F08E81;" parent="sqdpiy8trpQjpCW_eLVI-1" vertex="1"><mxGeometry x="90" y="467" width="90" height="60" as="geometry"/></mxCell><mxCell id="sqdpiy8trpQjpCW_eLVI-99" style="edgeStyle=none;rounded=0;orthogonalLoop=1;jettySize=auto;html=1;exitX=0.5;exitY=0;exitDx=0;exitDy=0;entryX=0;entryY=1;entryDx=0;entryDy=0;endArrow=none;endFill=0;strokeWidth=3;strokeColor=#182E3E;" parent="sqdpiy8trpQjpCW_eLVI-1" source="sqdpiy8trpQjpCW_eLVI-100" target="sqdpiy8trpQjpCW_eLVI-96" edge="1"><mxGeometry relative="1" as="geometry"/></mxCell><mxCell id="sqdpiy8trpQjpCW_eLVI-100" value="gender" style="ellipse;whiteSpace=wrap;html=1;rounded=0;sketch=0;fontColor=#1A1A1A;strokeColor=#FFFFFF;fillColor=#F08E81;" parent="sqdpiy8trpQjpCW_eLVI-1" vertex="1"><mxGeometry x="90" y="647" width="90" height="60" as="geometry"/></mxCell><mxCell id="sqdpiy8trpQjpCW_eLVI-101" style="edgeStyle=none;rounded=0;orthogonalLoop=1;jettySize=auto;html=1;exitX=1;exitY=0;exitDx=0;exitDy=0;entryX=0.5;entryY=1;entryDx=0;entryDy=0;endArrow=none;endFill=0;strokeWidth=3;strokeColor=#182E3E;" parent="sqdpiy8trpQjpCW_eLVI-1" source="sqdpiy8trpQjpCW_eLVI-96" target="sqdpiy8trpQjpCW_eLVI-102" edge="1"><mxGeometry relative="1" as="geometry"/></mxCell><mxCell id="sqdpiy8trpQjpCW_eLVI-102" value="is" style="rhombus;whiteSpace=wrap;html=1;rounded=0;sketch=0;fontColor=#1A1A1A;strokeColor=#FFFFFF;fillColor=#F08E81;" parent="sqdpiy8trpQjpCW_eLVI-1" vertex="1"><mxGeometry x="240" y="440" width="80" height="80" as="geometry"/></mxCell><mxCell id="sqdpiy8trpQjpCW_eLVI-105" style="edgeStyle=none;rounded=0;orthogonalLoop=1;jettySize=auto;html=1;exitX=0.5;exitY=0;exitDx=0;exitDy=0;entryX=0.5;entryY=1;entryDx=0;entryDy=0;endArrow=none;endFill=0;strokeColor=#000000;strokeWidth=1;" parent="sqdpiy8trpQjpCW_eLVI-1" source="sqdpiy8trpQjpCW_eLVI-104" target="sqdpiy8trpQjpCW_eLVI-27" edge="1"><mxGeometry relative="1" as="geometry"/></mxCell><mxCell id="sqdpiy8trpQjpCW_eLVI-104" value="width" style="ellipse;whiteSpace=wrap;html=1;rounded=0;sketch=0;fontColor=#1A1A1A;strokeColor=#FFFFFF;fillColor=#F08E81;" parent="sqdpiy8trpQjpCW_eLVI-1" vertex="1"><mxGeometry x="1081" y="1077" width="90" height="60" as="geometry"/></mxCell><mxCell id="sqdpiy8trpQjpCW_eLVI-108" style="edgeStyle=none;rounded=0;orthogonalLoop=1;jettySize=auto;html=1;endArrow=classic;endFill=1;strokeWidth=3;strokeColor=#182E3E;entryX=0;entryY=0.5;entryDx=0;entryDy=0;" parent="sqdpiy8trpQjpCW_eLVI-1" target="sqdpiy8trpQjpCW_eLVI-107" edge="1"><mxGeometry relative="1" as="geometry"><mxPoint x="830" y="687" as="sourcePoint"/><mxPoint x="900" y="710" as="targetPoint"/></mxGeometry></mxCell><mxCell id="sqdpiy8trpQjpCW_eLVI-107" value="featured in" style="rhombus;whiteSpace=wrap;html=1;rounded=0;sketch=0;fontColor=#1A1A1A;strokeColor=#FFFFFF;fillColor=#F08E81;" parent="sqdpiy8trpQjpCW_eLVI-1" vertex="1"><mxGeometry x="908" y="647" width="80" height="80" as="geometry"/></mxCell><mxCell id="sqdpiy8trpQjpCW_eLVI-112" style="edgeStyle=none;rounded=0;orthogonalLoop=1;jettySize=auto;html=1;exitX=0.5;exitY=0;exitDx=0;exitDy=0;endArrow=none;endFill=0;strokeColor=#000000;strokeWidth=3;" parent="sqdpiy8trpQjpCW_eLVI-1" source="sqdpiy8trpQjpCW_eLVI-111" target="sqdpiy8trpQjpCW_eLVI-12" edge="1"><mxGeometry relative="1" as="geometry"/></mxCell><mxCell id="sqdpiy8trpQjpCW_eLVI-111" value="&lt;u&gt;name&lt;br&gt;&lt;/u&gt;" style="ellipse;whiteSpace=wrap;html=1;rounded=0;sketch=0;fontColor=#1A1A1A;strokeColor=#FFFFFF;fillColor=#F08E81;" parent="sqdpiy8trpQjpCW_eLVI-1" vertex="1"><mxGeometry x="458" y="450" width="90" height="60" as="geometry"/></mxCell><mxCell id="sqdpiy8trpQjpCW_eLVI-114" style="edgeStyle=none;rounded=0;orthogonalLoop=1;jettySize=auto;html=1;exitX=0.5;exitY=0;exitDx=0;exitDy=0;endArrow=none;endFill=0;strokeWidth=3;strokeColor=#182E3E;" parent="sqdpiy8trpQjpCW_eLVI-1" source="sqdpiy8trpQjpCW_eLVI-113" target="sqdpiy8trpQjpCW_eLVI-96" edge="1"><mxGeometry relative="1" as="geometry"/></mxCell><mxCell id="sqdpiy8trpQjpCW_eLVI-113" value="&lt;u&gt;id&lt;/u&gt;" style="ellipse;whiteSpace=wrap;html=1;rounded=0;sketch=0;fontColor=#1A1A1A;strokeColor=#FFFFFF;fillColor=#F08E81;" parent="sqdpiy8trpQjpCW_eLVI-1" vertex="1"><mxGeometry x="230" y="647" width="90" height="60" as="geometry"/></mxCell><mxCell id="1" style="rounded=0;orthogonalLoop=1;jettySize=auto;html=1;exitX=1;exitY=0.5;exitDx=0;exitDy=0;entryX=0;entryY=1;entryDx=0;entryDy=0;strokeColor=#182E3E;strokeWidth=3;endArrow=none;endFill=0;" parent="sqdpiy8trpQjpCW_eLVI-1" source="0" target="sqdpiy8trpQjpCW_eLVI-27" edge="1"><mxGeometry relative="1" as="geometry"/></mxCell><mxCell id="0" value="&lt;u&gt;name&lt;/u&gt;" style="ellipse;whiteSpace=wrap;html=1;rounded=0;sketch=0;fontColor=#1A1A1A;strokeColor=#FFFFFF;fillColor=#F08E81;" parent="sqdpiy8trpQjpCW_eLVI-1" vertex="1"><mxGeometry x="890" y="1037" width="90" height="60" as="geometry"/></mxCell><mxCell id="tvfIJOaYluC2pRw1_rF1-3" style="edgeStyle=orthogonalEdgeStyle;rounded=0;orthogonalLoop=1;jettySize=auto;html=1;exitX=0.5;exitY=0;exitDx=0;exitDy=0;entryX=0.5;entryY=1;entryDx=0;entryDy=0;strokeColor=#182E3E;endArrow=none;endFill=0;strokeWidth=3;" parent="sqdpiy8trpQjpCW_eLVI-1" source="tvfIJOaYluC2pRw1_rF1-1" target="sqdpiy8trpQjpCW_eLVI-34" edge="1"><mxGeometry relative="1" as="geometry"/></mxCell><mxCell id="tvfIJOaYluC2pRw1_rF1-1" value="acquired?" style="ellipse;whiteSpace=wrap;html=1;rounded=0;sketch=0;fontColor=#1A1A1A;strokeColor=#FFFFFF;fillColor=#F08E81;" parent="sqdpiy8trpQjpCW_eLVI-1" vertex="1"><mxGeometry x="383" y="914" width="90" height="60" as="geometry"/></mxCell></root></mxGraphModel></diagram></mxfile>